<?xml version="1.0" standalone="no"?>
<!DOCTYPE svg PUBLIC "-//W3C//DTD SVG 20010904//EN"
 "http://www.w3.org/TR/2001/REC-SVG-20010904/DTD/svg10.dtd">
<svg version="1.0" xmlns="http://www.w3.org/2000/svg"
 width="541.000000pt" height="180.000000pt" viewBox="0 0 541.000000 180.000000"
 preserveAspectRatio="xMidYMid meet">
<metadata>
Created by potrace 1.16, written by Peter Selinger 2001-2019
</metadata>
<g transform="translate(0.000000,180.000000) scale(0.100000,-0.100000)"
fill="#000000" stroke="none">
<path d="M2532 1489 c-41 -15 -44 -45 -40 -444 l3 -380 28 -57 c18 -37 40 -64
63 -78 98 -61 222 -14 170 65 -13 20 -25 25 -56 25 -30 0 -43 6 -59 26 -20 26
-21 37 -21 413 0 324 -2 390 -15 408 -18 25 -43 33 -73 22z"/>
<path d="M590 1400 c-19 -19 -20 -33 -20 -353 0 -371 5 -408 63 -474 41 -47
99 -73 165 -73 79 0 114 44 76 98 -11 16 -25 22 -54 22 -53 0 -88 18 -108 54
-13 25 -17 68 -20 209 l-4 177 59 0 c71 0 107 17 111 50 4 44 -12 55 -90 60
l-73 5 -3 105 c-2 93 -5 107 -23 123 -28 22 -54 22 -79 -3z"/>
<path d="M4520 1400 c-19 -19 -20 -33 -20 -353 0 -370 4 -401 62 -471 40 -49
98 -75 166 -76 79 0 114 44 76 98 -11 16 -25 22 -54 22 -51 0 -83 15 -103 50
-14 23 -17 58 -17 209 l0 181 53 0 c66 0 101 17 105 51 5 43 -21 59 -93 59
l-63 0 -4 106 c-3 97 -6 108 -27 125 -30 24 -56 24 -81 -1z"/>
<path d="M1198 1187 c-99 -28 -158 -94 -158 -177 0 -47 11 -73 49 -113 37 -41
70 -56 193 -88 59 -15 119 -36 134 -45 31 -21 46 -56 38 -90 -22 -88 -251 -92
-328 -5 -37 42 -116 13 -116 -42 0 -31 32 -60 105 -94 56 -26 69 -28 185 -28
110 0 130 3 166 22 142 76 149 253 14 327 -25 14 -91 36 -147 50 -123 30 -161
48 -169 81 -11 45 3 72 46 89 61 24 137 21 190 -8 95 -52 108 -56 135 -46 60
23 11 106 -89 151 -61 26 -182 34 -248 16z"/>
<path d="M1958 1187 c-126 -36 -215 -141 -237 -279 -20 -123 15 -236 98 -317
69 -67 135 -91 250 -91 78 0 95 3 150 31 93 47 112 88 57 124 -25 16 -28 16
-70 -9 -176 -103 -369 -2 -370 194 -1 83 24 148 74 194 85 76 207 75 296 -4
19 -16 44 -30 54 -30 24 0 60 34 60 57 0 24 -76 92 -129 115 -58 25 -171 32
-233 15z"/>
<path d="M3911 1183 c-135 -41 -194 -179 -115 -272 39 -47 83 -69 204 -100
121 -32 155 -49 172 -86 52 -115 -179 -167 -308 -69 -50 39 -85 43 -114 14
-43 -43 -12 -92 88 -138 47 -22 75 -27 160 -30 124 -5 176 7 233 56 49 42 69
85 69 144 -1 100 -72 160 -235 198 -147 35 -190 62 -183 116 5 41 47 67 117
72 67 5 121 -10 168 -45 39 -30 91 -33 109 -8 18 24 18 24 -5 62 -13 20 -42
42 -84 63 -82 40 -191 49 -276 23z"/>
<path d="M2906 1171 c-16 -18 -17 -39 -14 -233 4 -171 8 -222 22 -260 25 -66
85 -131 148 -159 48 -21 70 -24 241 -27 160 -3 191 -2 212 12 l25 16 0 316 c0
198 -4 322 -10 335 -12 22 -78 27 -98 7 -9 -9 -12 -70 -12 -213 0 -110 -5
-216 -10 -237 -13 -46 -77 -105 -125 -114 -65 -12 -150 0 -189 27 -67 45 -76
79 -76 300 0 223 -5 242 -61 247 -25 2 -40 -3 -53 -17z"/>
</g>
</svg>
